<?xml version="1.0" encoding="UTF-8"?>
<svg version="1.1" xmlns="http://www.w3.org/2000/svg" width="820" height="595">
<path d="M0 0 C-0.33 1.98 -0.66 3.96 -1 6 C-1.66 6 -2.32 6 -3 6 C-3 6.66 -3 7.32 -3 8 C-5.05224125 9.61628827 -7.09236744 11.10020727 -9.25 12.5625 C-9.83652344 12.97435547 -10.42304688 13.38621094 -11.02734375 13.81054688 C-13.93494575 15.80666465 -16.46415824 17.50113124 -20 18 C-20 18.66 -20 19.32 -20 20 C-21.58203125 21.19140625 -21.58203125 21.19140625 -23.8125 22.5625 C-28.60983728 25.65026811 -32.9391242 29.13821142 -37.3203125 32.78515625 C-39.63798812 34.7007861 -41.98579654 36.55027868 -44.375 38.375 C-48.79569604 41.77980898 -53.0231318 45.39292502 -57.26416016 49.01635742 C-60.19387168 51.50829101 -63.14238848 53.91726883 -66.25 56.1875 C-74.16258042 61.66923173 -74.16258042 61.66923173 -80 69 C-80.66 69 -81.32 69 -82 69 C-82.25007813 69.5878125 -82.50015625 70.175625 -82.7578125 70.78125 C-84.16426885 73.29341102 -85.66640992 74.66645352 -87.875 76.5 C-90.15637637 78.42181162 -92.29001192 80.29764382 -94.375 82.4375 C-96 84 -96 84 -98 84 C-98 84.66 -98 85.32 -98 86 C-98.66 86 -99.32 86 -100 86 C-100.25652344 86.59039062 -100.51304687 87.18078125 -100.77734375 87.7890625 C-102.1116579 90.20191173 -103.51229854 91.54431506 -105.5625 93.375 C-109.30287894 97.00577076 -112.13702443 100.88616587 -114.9375 105.25 C-115.32687744 105.85247559 -115.71625488 106.45495117 -116.11743164 107.07568359 C-117.93717881 109.98161133 -119.46711592 112.58277512 -120 116 C-120.66 116 -121.32 116 -122 116 C-122.103125 116.53625 -122.20625 117.0725 -122.3125 117.625 C-123.18092697 120.62502044 -124.55620296 123.2379535 -126 126 C-126.66 126 -127.32 126 -128 126 C-128 126.99 -128 127.98 -128 129 C-128.66 129 -129.32 129 -130 129 C-130.28875 129.763125 -130.5775 130.52625 -130.875 131.3125 C-132 134 -132 134 -134 137 C-134 137.99 -134 138.98 -134 140 C-133.10023438 139.91621094 -132.20046875 139.83242187 -131.2734375 139.74609375 C-111.12826884 138.15143611 -91.78377122 140.10806397 -72 144 C-70.7639502 144.23992676 -69.52790039 144.47985352 -68.25439453 144.72705078 C-32.72332687 151.6938832 2.41114287 163.00180526 32.66870117 183.42749023 C34.92205241 184.94742272 37.19013324 186.44196333 39.46484375 187.9296875 C50.50672601 195.18442771 60.74699114 202.79550905 70.50390625 211.73046875 C72.13650876 213.21488512 73.78969006 214.67705598 75.46484375 216.11328125 C81.92084445 221.69216337 87.32699825 227.81631233 92.69921875 234.40966797 C93.90099176 235.87895277 95.12157158 237.33280089 96.34375 238.78515625 C105.88972434 250.19662909 114.15719226 262.38672731 121.84912109 275.10644531 C122.88942976 276.81807748 123.95313794 278.51543401 125.01953125 280.2109375 C136.0462166 298.40159969 142.93364158 319.00059998 149.90625 339.0078125 C152.69682752 347.00742679 155.65647451 354.59045945 159.65820312 362.0625 C161.39389478 365.40805492 162 367.12832547 162 371 C162.66 371 163.32 371 164 371 C164.22304441 372.74818591 164.4278645 374.49870323 164.625 376.25 C164.74101563 377.22453125 164.85703125 378.1990625 164.9765625 379.203125 C165.00112537 382.13429393 164.5312717 383.54528964 163 386 C162.01 386 161.02 386 160 386 C159.67 386.66 159.34 387.32 159 388 C157.68 388 156.36 388 155 388 C155 387.34 155 386.68 155 386 C153.68 385.34 152.36 384.68 151 384 C151 383.34 151 382.68 151 382 C150.34 382 149.68 382 149 382 C148.78085937 381.27296875 148.56171875 380.5459375 148.3359375 379.796875 C146.18092173 372.96389816 143.52808728 366.72871908 140.171875 360.3984375 C139 358 139 358 139 356 C138.34 356 137.68 356 137 356 C135.99762482 354.37152586 135.07672961 352.69291309 134.1875 351 C127.79890687 339.71659752 118.98142122 330.07648489 110.25 320.55859375 C104.85719375 314.42614914 99.96568272 307.86000338 94.9921875 301.38671875 C89.49932589 294.25585132 83.97435713 287.65298826 77.078125 281.8359375 C74.87746528 279.89174564 72.89413661 277.81881087 70.875 275.6875 C65.203889 269.93789612 58.66180719 265.51166815 52 261 C51.14792969 260.42121094 50.29585937 259.84242188 49.41796875 259.24609375 C47.9786787 258.28068554 46.53495324 257.321842 45.0859375 256.37109375 C43.60359822 255.39674715 42.13052743 254.40823523 40.6640625 253.41015625 C34.49289788 249.21745471 28.58307038 246.05332564 21.44140625 243.84375 C18.21419435 242.72842557 15.12832498 241.36840461 12 240 C12.0721875 241.02738281 12.144375 242.05476562 12.21875 243.11328125 C12.31269139 244.513008 12.40643033 245.91274835 12.5 247.3125 C12.54769531 247.98345703 12.59539062 248.65441406 12.64453125 249.34570312 C13.27780317 258.98048299 13.14864809 268.16682006 11.4375 277.6875 C11.17622314 279.16246948 11.17622314 279.16246948 10.90966797 280.66723633 C8.96612212 291.0396596 6.01002404 301.06537089 2.88476562 311.13378906 C2.03289258 313.89344402 1.20648749 316.65919664 0.390625 319.4296875 C-1.04263795 324.29592382 -2.51185072 329.15029523 -4 334 C-4.19770996 334.65194336 -4.39541992 335.30388672 -4.59912109 335.97558594 C-9.84234679 353.12295926 -17.28082958 369.36498439 -26 385 C-26.51175781 385.97066406 -27.02351563 386.94132812 -27.55078125 387.94140625 C-31.24859409 394.94831307 -35.49180256 401.49177593 -40 408 C-40.45713379 408.66370605 -40.91426758 409.32741211 -41.38525391 410.01123047 C-51.44783562 424.5881782 -62.12116465 438.74940053 -75 451 C-75.6703125 451.64195312 -76.340625 452.28390625 -77.03125 452.9453125 C-83.40429728 458.88383383 -90.21734291 463.87744967 -97.34960938 468.83740234 C-99.6650744 470.46850359 -101.92178424 472.17571318 -104.1875 473.875 C-128.23302487 491.28606618 -154.42190742 503.35171356 -182.93847656 511.36035156 C-190.59083784 513.52398749 -198.06560892 516.02665834 -205.49365234 518.8671875 C-210.23523637 520.62115934 -213.94071776 521.32922288 -219 521 C-219.66 519.68 -220.32 518.36 -221 517 C-217.68973876 513.55156089 -214.32145288 510.65453635 -210.4375 507.875 C-206.16385824 504.72681972 -202.2862111 501.48282983 -198.4375 497.8125 C-191.27964233 491.02329255 -183.25013932 485.42716701 -175.26953125 479.65722656 C-170.97044188 476.51800338 -166.77209682 473.25084434 -162.56640625 469.98828125 C-161.71949219 469.33214844 -160.87257813 468.67601562 -160 468 C-159.26652344 467.41605469 -158.53304687 466.83210938 -157.77734375 466.23046875 C-156 465 -156 465 -154 465 C-154 464.34 -154 463.68 -154 463 C-152.41015625 461.6171875 -152.41015625 461.6171875 -150.0625 459.875 C-132.74209879 446.33806232 -117.15091651 430.32633661 -105 412 C-104.14341797 410.72962891 -104.14341797 410.72962891 -103.26953125 409.43359375 C-100.43065513 404.86117423 -99.45523391 401.2352969 -99.53125 395.84765625 C-99.88343216 393.59375483 -99.88343216 393.59375483 -103 392 C-103 391.34 -103 390.68 -103 390 C-107.44269342 389.2404083 -111.89225676 388.5764825 -116.35546875 387.94921875 C-138.33550235 384.83060456 -159.48150984 380.94686112 -180.79882812 374.64013672 C-183.43608163 373.87318034 -186.08945315 373.18126124 -188.75 372.5 C-201.18121237 369.0780333 -212.85589039 364.31359531 -224.5625 358.9375 C-226.22164429 358.17771851 -226.22164429 358.17771851 -227.91430664 357.40258789 C-233.88370432 354.61668763 -239.5113069 351.63858981 -245 348 C-245.92425781 347.42636719 -246.84851563 346.85273438 -247.80078125 346.26171875 C-253.55436707 342.65566107 -259.08276105 338.83438401 -264.5390625 334.79296875 C-266.55333652 333.32542625 -268.5818429 331.95462854 -270.6875 330.625 C-271.450625 330.08875 -272.21375 329.5525 -273 329 C-273 328.34 -273 327.68 -273 327 C-273.72703125 326.75636719 -274.4540625 326.51273437 -275.203125 326.26171875 C-278.34128641 324.84603979 -280.25841964 323.17787286 -282.75 320.8125 C-285.89559315 317.88560933 -289.03433424 315.16280134 -292.5 312.625 C-300.2070356 306.74259827 -306.30707108 299.10021973 -312.1171875 291.3984375 C-313.90047914 289.12677554 -315.78043134 286.96924982 -317.69458008 284.80786133 C-325.802803 275.57377771 -332.40245867 265.34290816 -339 255 C-339.38704102 254.39768555 -339.77408203 253.79537109 -340.17285156 253.17480469 C-345.83157084 244.28253153 -349.92521976 234.68738508 -354 225 C-354.37495605 224.11779785 -354.74991211 223.2355957 -355.13623047 222.32666016 C-360.88824426 208.70725225 -365.89195269 194.87443677 -370.625 180.875 C-370.89501831 180.08651672 -371.16503662 179.29803345 -371.4432373 178.48565674 C-372.21604418 176.22073084 -372.97360313 173.95127819 -373.7265625 171.6796875 C-374.07266068 170.67171112 -374.07266068 170.67171112 -374.42575073 169.64337158 C-375.83239277 165.31962497 -376.47549864 161.53731367 -376 157 C-373 155 -373 155 -370.51171875 155.17578125 C-363.41600099 157.50423607 -359.03972327 166.64522609 -354.90136719 172.51025391 C-348.40673416 181.7105774 -341.50188174 190.51187021 -334.17163086 199.05932617 C-330.87710258 202.91572987 -327.72878548 206.86409258 -324.625 210.875 C-315.0823172 223.26093008 -315.0823172 223.26093008 -304.328125 234.56762695 C-303 236 -303 236 -303 238 C-302.41734375 238.25394531 -301.8346875 238.50789062 -301.234375 238.76953125 C-298.75811967 240.13320333 -297.19479374 241.64225203 -295.25 243.6875 C-291.33166501 247.69163795 -287.28869589 251.39695769 -283 255 C-282.46407227 255.45503906 -281.92814453 255.91007812 -281.37597656 256.37890625 C-267.46539838 268.14534447 -253.01053323 279.1477004 -236 286 C-234.62309309 283.24618617 -235.13264328 281.37235823 -235.4375 278.3125 C-237.38411196 254.6157437 -232.60118804 234.26611768 -226.02880859 211.57128906 C-225.07752455 208.26910991 -224.15295057 204.9609106 -223.23828125 201.6484375 C-217.71135557 181.83371848 -211.10253087 162.74662085 -200.98291016 144.78857422 C-199.54948349 142.18020766 -198.28111418 139.49825176 -197 136.8125 C-193.89973609 130.57818183 -190.21389846 124.79600537 -186.34960938 119.01904297 C-185.40069933 117.59945431 -184.4571621 116.17626673 -183.51757812 114.75048828 C-168.25876452 91.61938414 -149.82087722 70.00954397 -127 54 C-125.87355598 53.18167155 -124.74860224 52.36128851 -123.625 51.5390625 C-120.11383619 48.98168193 -116.56387718 46.48321141 -113 44 C-112.40461426 43.58218262 -111.80922852 43.16436523 -111.19580078 42.73388672 C-86.23504669 25.29959489 -57.41593127 13.36286095 -28.00830078 5.73071289 C-22.98200553 4.38887465 -18.61810056 2.50579962 -14.0390625 0.01171875 C-9.03018342 -2.47352968 -4.9160937 -2.53253312 0 0 Z M-158 219 C-158.78503906 219.68707031 -159.57007813 220.37414062 -160.37890625 221.08203125 C-170.57513894 230.38113348 -176.45911137 243.86498851 -177.34765625 257.56640625 C-178.09858565 275.8402024 -173.19843547 291.36220311 -161.375 305.625 C-149.21644746 318.58469747 -133.97928125 327.76633513 -115.90917969 328.35375977 C-96.37469568 328.54592396 -80.54973287 323.54630302 -66 310 C-52.84975878 296.80885601 -45.84702901 282.32851338 -45.6875 263.5 C-45.71805081 246.92448981 -51.09437181 232.6723379 -62.359375 220.4375 C-65.70219309 217.11840277 -65.70219309 217.11840277 -70 216 C-70 215.34 -70 214.68 -70 214 C-81.60125437 202.67171632 -97.7958319 198.45652095 -113.5 198.5625 C-114.55058594 198.54251953 -115.60117187 198.52253906 -116.68359375 198.50195312 C-133.74089637 198.51249534 -146.08561992 207.62630491 -158 219 Z " fill="#D3E6ED" transform="translate(520,37)"/>
<path d="M0 0 C0.99 0.495 0.99 0.495 2 1 C1.20078125 1.59425781 0.4015625 2.18851562 -0.421875 2.80078125 C-7.38676409 8.03647124 -13.94397641 13.52292722 -20.296875 19.484375 C-22.50616012 21.54041491 -24.74998383 23.50100272 -27.0625 25.4375 C-36.96533117 34.07178668 -45.11018062 44.55690697 -53 55 C-53.41604492 55.54317871 -53.83208984 56.08635742 -54.26074219 56.64599609 C-71.10072668 78.74096385 -84.41297658 104.93657347 -91 132 C-90.45811035 131.74831055 -89.9162207 131.49662109 -89.35791016 131.23730469 C-62.33074538 118.81926435 -34.44964169 114.00622388 -5.44140625 123.6875 C23.1350139 134.586112 45.29087104 153.56601042 58.62109375 181.3828125 C74.23166163 217.43115629 65.42017532 254.05850897 53.95410156 290.00634766 C53.35936833 291.87242209 52.77375486 293.7414582 52.20214844 295.61474609 C44.78702678 319.90684096 32.72970342 343.36611483 18 364 C17.59620117 364.5765332 17.19240234 365.15306641 16.77636719 365.74707031 C3.89340933 384.07321729 -12.12477411 401.47840516 -30 415 C-30.92425781 415.71422119 -30.92425781 415.71422119 -31.8671875 416.44287109 C-43.17259293 425.14121105 -55.00775506 432.18172164 -67.65771484 438.75048828 C-69.82280404 439.90547332 -71.91876599 441.135379 -74.01953125 442.40234375 C-75.00308594 442.92957031 -75.98664063 443.45679688 -77 444 C-77.66 443.67 -78.32 443.34 -79 443 C-78.20078125 442.40574219 -77.4015625 441.81148437 -76.578125 441.19921875 C-69.61625203 435.96579606 -63.06153467 430.48181367 -56.7109375 424.5234375 C-54.45744824 422.42580917 -52.16659836 420.4194089 -49.8125 418.4375 C-45.1089442 414.3436644 -41.07988893 409.70348171 -37 405 C-36.15566406 404.05511719 -35.31132812 403.11023438 -34.44140625 402.13671875 C-15.47528445 380.64502754 0.88926888 354.17774377 9.1484375 326.60546875 C10.22904299 323.2992125 11.59825504 320.18329232 13 317 C12.06800781 317.45890625 11.13601563 317.9178125 10.17578125 318.390625 C-16.2263092 331.19047567 -44.89481657 334.21521075 -73 325 C-77.53112449 323.36897393 -81.77716952 321.31209862 -86 319 C-87.03511719 318.44183594 -88.07023437 317.88367188 -89.13671875 317.30859375 C-95.54738628 313.71315035 -101.38248586 309.73263138 -107 305 C-107.80050781 304.34515625 -108.60101563 303.6903125 -109.42578125 303.015625 C-121.56462066 292.67023775 -129.12352514 280.18859749 -136 266 C-136.43183594 265.14148438 -136.86367188 264.28296875 -137.30859375 263.3984375 C-153.74594804 227.19788291 -140.9940266 178.82639006 -127.97265625 143.54882812 C-114.61794853 108.55305788 -96.37204184 76.78880809 -70 50 C-68.94602586 48.90812006 -67.89262421 47.81568717 -66.83984375 46.72265625 C-60.61317493 40.31261562 -54.1036532 34.4342947 -47 29 C-46.09314453 28.29520508 -46.09314453 28.29520508 -45.16796875 27.57617188 C-32.26147874 17.60991775 -18.39116853 9.62917349 -4 2 C-3.27345215 1.59160889 -2.5469043 1.18321777 -1.79833984 0.76245117 C-0.90816162 0.38503784 -0.90816162 0.38503784 0 0 Z M-85 180 C-85.78503906 180.68707031 -86.57007813 181.37414062 -87.37890625 182.08203125 C-97.57513894 191.38113348 -103.45911137 204.86498851 -104.34765625 218.56640625 C-105.09858565 236.8402024 -100.19843547 252.36220311 -88.375 266.625 C-76.21644746 279.58469747 -60.97928125 288.76633513 -42.90917969 289.35375977 C-23.37469568 289.54592396 -7.54973287 284.54630302 7 271 C20.15024122 257.80885601 27.15297099 243.32851338 27.3125 224.5 C27.28194919 207.92448981 21.90562819 193.6723379 10.640625 181.4375 C7.29780691 178.11840277 7.29780691 178.11840277 3 177 C3 176.34 3 175.68 3 175 C-8.60125437 163.67171632 -24.7958319 159.45652095 -40.5 159.5625 C-41.55058594 159.54251953 -42.60117187 159.52253906 -43.68359375 159.50195312 C-60.74089637 159.51249534 -73.08561992 168.62630491 -85 180 Z " fill="#1C76A5" transform="translate(447,76)"/>
<path d="M0 0 C-0.33 1.98 -0.66 3.96 -1 6 C-1.66 6 -2.32 6 -3 6 C-3 6.66 -3 7.32 -3 8 C-5.05224125 9.61628827 -7.09236744 11.10020727 -9.25 12.5625 C-9.83652344 12.97435547 -10.42304688 13.38621094 -11.02734375 13.81054688 C-13.93494575 15.80666465 -16.46415824 17.50113124 -20 18 C-20 18.66 -20 19.32 -20 20 C-21.58203125 21.19140625 -21.58203125 21.19140625 -23.8125 22.5625 C-28.60983728 25.65026811 -32.9391242 29.13821142 -37.3203125 32.78515625 C-39.63798812 34.7007861 -41.98579654 36.55027868 -44.375 38.375 C-48.79569604 41.77980898 -53.0231318 45.39292502 -57.26416016 49.01635742 C-60.19387168 51.50829101 -63.14238848 53.91726883 -66.25 56.1875 C-74.16258042 61.66923173 -74.16258042 61.66923173 -80 69 C-80.66 69 -81.32 69 -82 69 C-82.25007813 69.5878125 -82.50015625 70.175625 -82.7578125 70.78125 C-84.16426885 73.29341102 -85.66640992 74.66645352 -87.875 76.5 C-90.15637637 78.42181162 -92.29001192 80.29764382 -94.375 82.4375 C-96 84 -96 84 -98 84 C-98 84.66 -98 85.32 -98 86 C-98.66 86 -99.32 86 -100 86 C-100.25652344 86.59039062 -100.51304687 87.18078125 -100.77734375 87.7890625 C-102.1116579 90.20191173 -103.51229854 91.54431506 -105.5625 93.375 C-109.30287894 97.00577076 -112.13702443 100.88616587 -114.9375 105.25 C-115.32687744 105.85247559 -115.71625488 106.45495117 -116.11743164 107.07568359 C-117.93717881 109.98161133 -119.46711592 112.58277512 -120 116 C-120.66 116 -121.32 116 -122 116 C-122.103125 116.53625 -122.20625 117.0725 -122.3125 117.625 C-123.18092697 120.62502044 -124.55620296 123.2379535 -126 126 C-126.66 126 -127.32 126 -128 126 C-128 126.99 -128 127.98 -128 129 C-128.66 129 -129.32 129 -130 129 C-130.28875 129.763125 -130.5775 130.52625 -130.875 131.3125 C-132 134 -132 134 -134 137 C-134 137.99 -134 138.98 -134 140 C-133.10023438 139.91621094 -132.20046875 139.83242187 -131.2734375 139.74609375 C-111.12826884 138.15143611 -91.78377122 140.10806397 -72 144 C-70.7639502 144.23992676 -69.52790039 144.47985352 -68.25439453 144.72705078 C-32.72332687 151.6938832 2.41114287 163.00180526 32.66870117 183.42749023 C34.92205241 184.94742272 37.19013324 186.44196333 39.46484375 187.9296875 C50.50672601 195.18442771 60.74699114 202.79550905 70.50390625 211.73046875 C72.13650876 213.21488512 73.78969006 214.67705598 75.46484375 216.11328125 C81.92084445 221.69216337 87.32699825 227.81631233 92.69921875 234.40966797 C93.90099176 235.87895277 95.12157158 237.33280089 96.34375 238.78515625 C105.88972434 250.19662909 114.15719226 262.38672731 121.84912109 275.10644531 C122.88942976 276.81807748 123.95313794 278.51543401 125.01953125 280.2109375 C136.0462166 298.40159969 142.93364158 319.00059998 149.90625 339.0078125 C152.69682752 347.00742679 155.65647451 354.59045945 159.65820312 362.0625 C161.39389478 365.40805492 162 367.12832547 162 371 C162.66 371 163.32 371 164 371 C164.22304441 372.74818591 164.4278645 374.49870323 164.625 376.25 C164.74101563 377.22453125 164.85703125 378.1990625 164.9765625 379.203125 C165.00112537 382.13429393 164.5312717 383.54528964 163 386 C162.01 386 161.02 386 160 386 C159.67 386.66 159.34 387.32 159 388 C157.68 388 156.36 388 155 388 C155 387.34 155 386.68 155 386 C153.68 385.34 152.36 384.68 151 384 C151 383.34 151 382.68 151 382 C150.34 382 149.68 382 149 382 C148.78085937 381.27296875 148.56171875 380.5459375 148.3359375 379.796875 C146.18092173 372.96389816 143.52808728 366.72871908 140.171875 360.3984375 C139 358 139 358 139 356 C138.34 356 137.68 356 137 356 C135.99762482 354.37152586 135.07672961 352.69291309 134.1875 351 C127.79890687 339.71659752 118.98142122 330.07648489 110.25 320.55859375 C104.85719375 314.42614914 99.96568272 307.86000338 94.9921875 301.38671875 C89.49932589 294.25585132 83.97435713 287.65298826 77.078125 281.8359375 C74.87746528 279.89174564 72.89413661 277.81881087 70.875 275.6875 C65.203889 269.93789612 58.66180719 265.51166815 52 261 C51.14792969 260.42121094 50.29585937 259.84242188 49.41796875 259.24609375 C47.9786787 258.28068554 46.53495324 257.321842 45.0859375 256.37109375 C43.60359822 255.39674715 42.13052743 254.40823523 40.6640625 253.41015625 C34.49289788 249.21745471 28.58307038 246.05332564 21.44140625 243.84375 C18.21419435 242.72842557 15.12832498 241.36840461 12 240 C12.0721875 241.02738281 12.144375 242.05476562 12.21875 243.11328125 C12.31269139 244.513008 12.40643033 245.91274835 12.5 247.3125 C12.54769531 247.98345703 12.59539062 248.65441406 12.64453125 249.34570312 C13.27780317 258.98048299 13.14864809 268.16682006 11.4375 277.6875 C11.17622314 279.16246948 11.17622314 279.16246948 10.90966797 280.66723633 C8.96612212 291.0396596 6.01002404 301.06537089 2.88476562 311.13378906 C2.03289258 313.89344402 1.20648749 316.65919664 0.390625 319.4296875 C-1.04263795 324.29592382 -2.51185072 329.15029523 -4 334 C-4.19770996 334.65194336 -4.39541992 335.30388672 -4.59912109 335.97558594 C-9.84234679 353.12295926 -17.28082958 369.36498439 -26 385 C-26.51175781 385.97066406 -27.02351563 386.94132812 -27.55078125 387.94140625 C-31.24859409 394.94831307 -35.49180256 401.49177593 -40 408 C-40.45713379 408.66370605 -40.91426758 409.32741211 -41.38525391 410.01123047 C-51.44783562 424.5881782 -62.12116465 438.74940053 -75 451 C-75.6703125 451.64195312 -76.340625 452.28390625 -77.03125 452.9453125 C-83.40429728 458.88383383 -90.21734291 463.87744967 -97.34960938 468.83740234 C-99.6650744 470.46850359 -101.92178424 472.17571318 -104.1875 473.875 C-128.23302487 491.28606618 -154.42190742 503.35171356 -182.93847656 511.36035156 C-190.59083784 513.52398749 -198.06560892 516.02665834 -205.49365234 518.8671875 C-210.23523637 520.62115934 -213.94071776 521.32922288 -219 521 C-219.66 519.68 -220.32 518.36 -221 517 C-217.68973876 513.55156089 -214.32145288 510.65453635 -210.4375 507.875 C-206.16385824 504.72681972 -202.2862111 501.48282983 -198.4375 497.8125 C-191.27964233 491.02329255 -183.25013932 485.42716701 -175.26953125 479.65722656 C-170.97044188 476.51800338 -166.77209682 473.25084434 -162.56640625 469.98828125 C-161.71949219 469.33214844 -160.87257813 468.67601562 -160 468 C-159.26652344 467.41605469 -158.53304687 466.83210938 -157.77734375 466.23046875 C-156 465 -156 465 -154 465 C-154 464.34 -154 463.68 -154 463 C-152.41015625 461.6171875 -152.41015625 461.6171875 -150.0625 459.875 C-132.74209879 446.33806232 -117.15091651 430.32633661 -105 412 C-104.14341797 410.72962891 -104.14341797 410.72962891 -103.26953125 409.43359375 C-100.43065513 404.86117423 -99.45523391 401.2352969 -99.53125 395.84765625 C-99.88343216 393.59375483 -99.88343216 393.59375483 -103 392 C-103 391.34 -103 390.68 -103 390 C-107.44269342 389.2404083 -111.89225676 388.5764825 -116.35546875 387.94921875 C-138.33550235 384.83060456 -159.48150984 380.94686112 -180.79882812 374.64013672 C-183.43608163 373.87318034 -186.08945315 373.18126124 -188.75 372.5 C-201.18121237 369.0780333 -212.85589039 364.31359531 -224.5625 358.9375 C-226.22164429 358.17771851 -226.22164429 358.17771851 -227.91430664 357.40258789 C-233.88370432 354.61668763 -239.5113069 351.63858981 -245 348 C-245.92425781 347.42636719 -246.84851563 346.85273438 -247.80078125 346.26171875 C-253.55436707 342.65566107 -259.08276105 338.83438401 -264.5390625 334.79296875 C-266.55333652 333.32542625 -268.5818429 331.95462854 -270.6875 330.625 C-271.450625 330.08875 -272.21375 329.5525 -273 329 C-273 328.34 -273 327.68 -273 327 C-273.72703125 326.75636719 -274.4540625 326.51273437 -275.203125 326.26171875 C-278.34128641 324.84603979 -280.25841964 323.17787286 -282.75 320.8125 C-285.89559315 317.88560933 -289.03433424 315.16280134 -292.5 312.625 C-300.2070356 306.74259827 -306.30707108 299.10021973 -312.1171875 291.3984375 C-313.90047914 289.12677554 -315.78043134 286.96924982 -317.69458008 284.80786133 C-325.802803 275.57377771 -332.40245867 265.34290816 -339 255 C-339.38704102 254.39768555 -339.77408203 253.79537109 -340.17285156 253.17480469 C-345.83157084 244.28253153 -349.92521976 234.68738508 -354 225 C-354.37495605 224.11779785 -354.74991211 223.2355957 -355.13623047 222.32666016 C-360.88824426 208.70725225 -365.89195269 194.87443677 -370.625 180.875 C-370.89501831 180.08651672 -371.16503662 179.29803345 -371.4432373 178.48565674 C-372.21604418 176.22073084 -372.97360313 173.95127819 -373.7265625 171.6796875 C-374.07266068 170.67171112 -374.07266068 170.67171112 -374.42575073 169.64337158 C-375.83239277 165.31962497 -376.47549864 161.53731367 -376 157 C-373 155 -373 155 -370.51171875 155.17578125 C-363.41600099 157.50423607 -359.03972327 166.64522609 -354.90136719 172.51025391 C-348.40673416 181.7105774 -341.50188174 190.51187021 -334.17163086 199.05932617 C-330.87710258 202.91572987 -327.72878548 206.86409258 -324.625 210.875 C-315.0823172 223.26093008 -315.0823172 223.26093008 -304.328125 234.56762695 C-303 236 -303 236 -303 238 C-302.41734375 238.25394531 -301.8346875 238.50789062 -301.234375 238.76953125 C-298.75811967 240.13320333 -297.19479374 241.64225203 -295.25 243.6875 C-291.33166501 247.69163795 -287.28869589 251.39695769 -283 255 C-282.46407227 255.45503906 -281.92814453 255.91007812 -281.37597656 256.37890625 C-267.46539838 268.14534447 -253.01053323 279.1477004 -236 286 C-234.62309309 283.24618617 -235.13264328 281.37235823 -235.4375 278.3125 C-237.38411196 254.6157437 -232.60118804 234.26611768 -226.02880859 211.57128906 C-225.07752455 208.26910991 -224.15295057 204.9609106 -223.23828125 201.6484375 C-217.71135557 181.83371848 -211.10253087 162.74662085 -200.98291016 144.78857422 C-199.54948349 142.18020766 -198.28111418 139.49825176 -197 136.8125 C-193.89973609 130.57818183 -190.21389846 124.79600537 -186.34960938 119.01904297 C-185.40069933 117.59945431 -184.4571621 116.17626673 -183.51757812 114.75048828 C-168.25876452 91.61938414 -149.82087722 70.00954397 -127 54 C-125.87355598 53.18167155 -124.74860224 52.36128851 -123.625 51.5390625 C-120.11383619 48.98168193 -116.56387718 46.48321141 -113 44 C-112.40461426 43.58218262 -111.80922852 43.16436523 -111.19580078 42.73388672 C-86.23504669 25.29959489 -57.41593127 13.36286095 -28.00830078 5.73071289 C-22.98200553 4.38887465 -18.61810056 2.50579962 -14.0390625 0.01171875 C-9.03018342 -2.47352968 -4.9160937 -2.53253312 0 0 Z M-17.03515625 5.99609375 C-17.83034668 6.22006836 -18.62553711 6.44404297 -19.44482422 6.67480469 C-20.74057373 7.05233887 -20.74057373 7.05233887 -22.0625 7.4375 C-22.97789551 7.70336914 -23.89329102 7.96923828 -24.83642578 8.24316406 C-70.63142641 21.74240811 -111.31746563 40.63220172 -146 74 C-146.62696777 74.59973633 -147.25393555 75.19947266 -147.89990234 75.81738281 C-157.08671976 84.65077561 -165.49494838 93.69494255 -173 104 C-173.44601562 104.61182129 -173.89203125 105.22364258 -174.3515625 105.85400391 C-177.27086473 109.87742795 -180.13989652 113.93435803 -183 118 C-183.6350647 118.87277588 -183.6350647 118.87277588 -184.28295898 119.76318359 C-186.86562277 123.31707652 -189.20117256 126.88741646 -191.3125 130.75 C-191.82425781 131.67296875 -192.33601562 132.5959375 -192.86328125 133.546875 C-194.210216 136.00304665 -194.210216 136.00304665 -194 139 C-194.66 139 -195.32 139 -196 139 C-199.74880236 146.1497777 -203.02999013 153.31842685 -205.82421875 160.89453125 C-206.63117978 163.02587351 -207.49030595 165.1379707 -208.39208984 167.23095703 C-213.47041362 179.03553619 -217.31813811 191.02085093 -220.5625 203.4375 C-221.33257537 206.34595068 -222.1072762 209.25315756 -222.8828125 212.16015625 C-223.06764694 212.85584717 -223.25248138 213.55153809 -223.44291687 214.26831055 C-224.62336669 218.683948 -225.9123343 223.04778921 -227.30761719 227.39941406 C-234.14854468 248.8555324 -234.39158825 273.48545743 -228 295 C-229.69769531 294.13375 -229.69769531 294.13375 -231.4296875 293.25 C-232.91135207 292.49979009 -234.39312873 291.74980153 -235.875 291 C-236.62136719 290.6184375 -237.36773437 290.236875 -238.13671875 289.84375 C-238.85214844 289.4828125 -239.56757813 289.121875 -240.3046875 288.75 C-240.96452637 288.41484375 -241.62436523 288.0796875 -242.30419922 287.734375 C-243.9978855 286.86753587 -243.9978855 286.86753587 -246 287 C-246 286.34 -246 285.68 -246 285 C-247.47533203 284.43345703 -247.47533203 284.43345703 -248.98046875 283.85546875 C-253.50316743 281.91814554 -257.33142351 279.17193863 -261.3125 276.3125 C-262.72228569 275.3044206 -264.1349114 274.30029729 -265.55078125 273.30078125 C-266.16606689 272.85903564 -266.78135254 272.41729004 -267.4152832 271.9621582 C-268.97593928 270.82700614 -268.97593928 270.82700614 -271 271 C-271 270.34 -271 269.68 -271 269 C-272.518286 267.8588965 -272.518286 267.8588965 -274.5625 266.6875 C-286.65056166 258.9029413 -298.14536684 248.29729059 -307 237 C-308.11375 235.88625 -308.11375 235.88625 -309.25 234.75 C-315.37113722 228.62886278 -320.78565277 222.05372414 -326.00219727 215.15698242 C-329.71669318 210.28395278 -333.67012098 205.64641573 -337.6809082 201.01635742 C-341.15160069 197.00544459 -344.51304008 192.92871865 -347.80078125 188.765625 C-349.57535896 186.53400685 -351.3652498 184.31816896 -353.16796875 182.109375 C-354.02177124 181.06305908 -354.02177124 181.06305908 -354.89282227 179.99560547 C-356.01326799 178.62390828 -357.13477901 177.25308028 -358.25756836 175.88330078 C-361.55600798 171.84070409 -364.6976466 167.72991764 -367.71630859 163.47314453 C-368.13992676 162.98700684 -368.56354492 162.50086914 -369 162 C-369.66 162 -370.32 162 -371 162 C-369.06589463 170.88174741 -366.75587183 179.56964736 -364.0625 188.25 C-363.72798828 189.35601562 -363.39347656 190.46203125 -363.04882812 191.6015625 C-361.30485944 197.26022005 -359.38329702 202.6685458 -356.88647461 208.03759766 C-355.63278161 210.81291695 -354.70069477 213.67139464 -353.75 216.5625 C-350.87299814 224.75224764 -347.03167843 232.32705495 -343 240 C-342.67676758 240.62422852 -342.35353516 241.24845703 -342.02050781 241.89160156 C-339.02649446 247.67346291 -336.09864612 252.93258298 -332 258 C-331.23445687 259.3339397 -330.50349072 260.68846098 -329.8125 262.0625 C-321.54285805 277.31202322 -308.87680888 290.46859755 -297 303 C-296.2575 303.78503906 -295.515 304.57007813 -294.75 305.37890625 C-293.21221598 306.96474602 -291.61373178 308.4915116 -290 310 C-289.34 310 -288.68 310 -288 310 C-288 310.66 -288 311.32 -288 312 C-286.33501459 313.60421563 -286.33501459 313.60421563 -284.0625 315.3125 C-283.155 316.01890625 -282.2475 316.7253125 -281.3125 317.453125 C-280.79300781 317.85208984 -280.27351563 318.25105469 -279.73828125 318.66210938 C-277.79729753 320.15601257 -275.86767613 321.66403722 -273.9375 323.171875 C-266.17696313 329.2028908 -258.4189056 334.91422989 -250 340 C-249.01 340.66 -248.02 341.32 -247 342 C-246.01 342 -245.02 342 -244 342 C-244 342.66 -244 343.32 -244 344 C-242.35 344.33 -240.7 344.66 -239 345 C-239 345.66 -239 346.32 -239 347 C-238.41992188 347.25394531 -237.83984375 347.50789063 -237.2421875 347.76953125 C-226.26579521 352.60566449 -226.26579521 352.60566449 -221.5625 355.5 C-216.83444994 358.26763906 -212.57811696 360.50710154 -207 360 C-207 360.66 -207 361.32 -207 362 C-201.81606307 364.36195272 -196.68821394 366.04226713 -191.1875 367.5 C-189.58051564 367.93541061 -187.97374252 368.37160163 -186.3671875 368.80859375 C-185.60631836 369.01468262 -184.84544922 369.22077148 -184.06152344 369.43310547 C-181.63179555 370.10125186 -179.22066552 370.82059042 -176.8125 371.5625 C-166.69408533 374.63447152 -156.49503114 377.20786353 -146.140625 379.34375 C-143.53561349 379.88808076 -140.95938034 380.49284941 -138.375 381.125 C-122.35942457 384.61930737 -104.01952884 384.30523411 -88 381 C-87.0615625 380.81308594 -86.123125 380.62617188 -85.15625 380.43359375 C-84.4446875 380.29050781 -83.733125 380.14742188 -83 380 C-83.66 380.99 -84.32 381.98 -85 383 C-85 384.32 -85 385.64 -85 387 C-85.66 387 -86.32 387 -87 387 C-87.24492187 387.53625 -87.48984375 388.0725 -87.7421875 388.625 C-93.95250118 401.64524384 -102.02878075 413.73275684 -111 425 C-111.76054687 425.96550781 -112.52109375 426.93101562 -113.3046875 427.92578125 C-124.955249 442.20770009 -138.2490818 455.91418724 -153 467 C-154.52246698 468.16775609 -156.04488709 469.33557434 -157.56616211 470.50488281 C-158.64910279 471.33653429 -159.73325676 472.16660821 -160.81860352 472.99511719 C-166.627259 477.44227615 -172.28166394 482.07465146 -177.94921875 486.69921875 C-205.24148752 508.96620284 -205.24148752 508.96620284 -216 516 C-211.05616104 517.57744967 -207.06957628 516.05547278 -202.1875 514.75 C-201.19065186 514.48550049 -200.19380371 514.22100098 -199.16674805 513.94848633 C-161.13461843 503.48393037 -125.12051135 487.41849844 -94 463 C-93.45408203 462.57412598 -92.90816406 462.14825195 -92.34570312 461.70947266 C-76.47823968 449.19858802 -61.77849197 434.42660667 -50 418 C-49.51096191 417.3287207 -49.02192383 416.65744141 -48.51806641 415.96582031 C-36.16318587 400.65939012 -36.16318587 400.65939012 -29 383 C-28.34 383 -27.68 383 -27 383 C-22.46252819 374.40833741 -18.64277398 365.82231681 -15.33984375 356.69140625 C-14.24023324 353.6618671 -13.09041809 350.67165881 -11.875 347.6875 C-11.24955626 346.12517757 -10.62454563 344.56268167 -10 343 C-9.68417969 342.22527344 -9.36835938 341.45054687 -9.04296875 340.65234375 C-6.04908916 332.93505255 -4.18283161 324.99044722 -2.2265625 316.96484375 C-0.34163469 309.2584683 1.57251096 301.52305779 4.54296875 294.15625 C6.16167984 289.89039859 6.77295049 285.77701473 7.1875 281.25 C7.26500488 280.43072021 7.34250977 279.61144043 7.42236328 278.76733398 C8.77846619 263.09167852 10.26866863 243.53733726 3 229 C28.08354908 239.8722974 50.37234813 253.35595778 70.63671875 271.85546875 C72.7074303 273.73451113 74.81078337 275.56014406 76.9375 277.375 C86.535491 285.77324213 94.9858381 295.01421428 102.65625 305.19921875 C106.35575551 310.10469052 110.35458451 314.59427679 114.5625 319.0625 C118.46144626 323.20291106 122.17727322 327.3009654 125.48046875 331.94140625 C127.54527225 334.73871073 129.76935458 337.39741411 132 340.0625 C132.43199707 340.57949463 132.86399414 341.09648926 133.30908203 341.62915039 C135.69276343 344.47130197 138.11326593 347.27686511 140.5625 350.0625 C143 353 143 353 144 356 C144.66 356 145.32 356 146 356 C146.2475 356.5775 146.495 357.155 146.75 357.75 C148.16683317 360.3002997 149.87627537 362.01785701 152 364 C150.78971838 355.47383695 148.43482824 347.44643837 145.75048828 339.29541016 C144.96172452 336.88293231 144.19707844 334.46355693 143.43359375 332.04296875 C133.62144803 301.32353853 119.52576236 273.62804526 100 248 C99.01966797 246.69675781 99.01966797 246.69675781 98.01953125 245.3671875 C91.88479405 237.44042686 84.92449092 230.23255929 78 223 C77.5167627 222.49339844 77.03352539 221.98679687 76.53564453 221.46484375 C71.04485167 215.73670822 65.35129701 210.7382692 59 206 C57.48288169 204.80311774 55.96577853 203.60621621 54.44897461 202.40893555 C48.2349794 197.53359602 41.80233845 193.17832276 35.11328125 188.984375 C32.59749998 187.38084064 30.19744783 185.72495563 27.8125 183.9375 C25.1574577 181.71634738 25.1574577 181.71634738 22 182 C22 181.34 22 180.68 22 180 C20.845 179.505 19.69 179.01 18.5 178.5 C15.32944685 177.10535795 12.22936747 175.61874701 9.15625 174.0234375 C-0.97157608 168.76542512 -0.97157608 168.76542512 -12 166 C-12 165.34 -12 164.68 -12 164 C-15.50776784 162.39644899 -18.14354879 161.77963136 -22 162 C-22 161.34 -22 160.68 -22 160 C-22.62261719 159.85304687 -23.24523437 159.70609375 -23.88671875 159.5546875 C-28.83655101 158.35347298 -33.7465486 157.09124569 -38.62890625 155.640625 C-51.07496557 151.94797121 -63.55461376 149.02796342 -76.29443359 146.53320312 C-78.08035284 146.1812407 -79.86461131 145.82072992 -81.64697266 145.45117188 C-91.75944061 143.36040032 -101.36069088 142.79079727 -111.6875 142.75 C-112.97333984 142.729375 -114.25917969 142.70875 -115.58398438 142.6875 C-124.41565838 142.65179844 -133.93100001 142.96550001 -142 147 C-133.86863905 128.86532932 -124.36974313 112.59014177 -112 97 C-111.25234375 96.04738281 -110.5046875 95.09476562 -109.734375 94.11328125 C-97.74695419 79.39287929 -84.09175459 65.46453408 -68.84765625 54.125 C-66.49856636 52.37204403 -64.30245019 50.58141313 -62.125 48.625 C-56.31634032 43.43428284 -50.18692265 38.62003892 -44.12890625 33.72607422 C-42.06884601 32.05581895 -40.0173504 30.37568853 -37.96875 28.69140625 C-30.44334971 22.51579559 -22.82942893 16.51900525 -14.96289062 10.78100586 C-11.45643777 8.36832944 -11.45643777 8.36832944 -9 5 C-12.2050854 5 -14.07247522 5.1590938 -17.03515625 5.99609375 Z " fill="#F3F5F6" transform="translate(520,37)"/>
<path d="M0 0 C2.47018504 1.91277079 4.78832407 3.907786 7.08984375 6.01953125 C7.84523438 6.68339844 8.600625 7.34726563 9.37890625 8.03125 C23.59384665 21.24479426 32.67279037 40.50454091 33.42578125 59.90234375 C33.76596248 83.16963054 29.22128963 103.43841433 13.08984375 121.01953125 C12.42597656 121.77492188 11.76210938 122.5303125 11.078125 123.30859375 C-2.13541926 137.52353415 -21.39516591 146.60247787 -40.79296875 147.35546875 C-64.06025554 147.69564998 -84.32903933 143.15097713 -101.91015625 127.01953125 C-102.66554688 126.35566406 -103.4209375 125.69179688 -104.19921875 125.0078125 C-118.41415915 111.79426824 -127.49310287 92.53452159 -128.24609375 73.13671875 C-128.58627498 49.86943196 -124.04160213 29.60064817 -107.91015625 12.01953125 C-107.24628906 11.26414063 -106.58242188 10.50875 -105.8984375 9.73046875 C-78.73199641 -19.4947969 -32.23378126 -21.93627799 0 0 Z M-93.91015625 22.01953125 C-94.69519531 22.70660156 -95.48023438 23.39367187 -96.2890625 24.1015625 C-106.48529519 33.40066473 -112.36926762 46.88451976 -113.2578125 60.5859375 C-114.0087419 78.85973365 -109.10859172 94.38173436 -97.28515625 108.64453125 C-85.12660371 121.60422872 -69.8894375 130.78586638 -51.81933594 131.37329102 C-32.28485193 131.56545521 -16.45988912 126.56583427 -1.91015625 113.01953125 C11.24008497 99.82838726 18.24281474 85.34804463 18.40234375 66.51953125 C18.37179294 49.94402106 12.99547194 35.69186915 1.73046875 23.45703125 C-1.61234934 20.13793402 -1.61234934 20.13793402 -5.91015625 19.01953125 C-5.91015625 18.35953125 -5.91015625 17.69953125 -5.91015625 17.01953125 C-17.51141062 5.69124757 -33.70598815 1.4760522 -49.41015625 1.58203125 C-50.46074219 1.56205078 -51.51132812 1.54207031 -52.59375 1.52148438 C-69.65105262 1.53202659 -81.99577617 10.64583616 -93.91015625 22.01953125 Z " fill="#D3E7EF" transform="translate(455.91015625,233.98046875)"/>
<path d="M0 0 C7.99335075 1.51598031 15.38765351 4.19184648 23 7 C23.99 7.33 24.98 7.66 26 8 C26 8.66 26 9.32 26 10 C26.64066406 10.17015625 27.28132813 10.3403125 27.94140625 10.515625 C32.06733604 11.67162321 35.93922723 12.77656399 39.625 15 C42.22953818 16.54343003 44.14337621 17.45266787 46.9375 18.375 C50.83292166 19.75821115 53.65060257 21.84208717 56.87109375 24.39453125 C59.14532071 26.10959048 61.48355713 27.55494245 63.9375 29 C67.37416497 31.02470184 70.775424 33.08355524 74.125 35.25 C74.87007812 35.72953125 75.61515625 36.2090625 76.3828125 36.703125 C76.91648437 37.13109375 77.45015625 37.5590625 78 38 C78 38.66 78 39.32 78 40 C78.66 40.20625 79.32 40.4125 80 40.625 C92.45477046 46.33343646 102.61071274 58.51535908 112.25 68 C113.01368896 68.7422583 113.77737793 69.4845166 114.56420898 70.24926758 C115.27005127 70.95075928 115.97589355 71.65225098 116.703125 72.375 C117.33895508 73.00148438 117.97478516 73.62796875 118.62988281 74.2734375 C120 76 120 76 120 79 C120.5465625 79.18820312 121.093125 79.37640625 121.65625 79.5703125 C125.08527652 81.66201868 127.15515471 84.6882381 129.5 87.875 C130.01828369 88.57246338 130.53656738 89.26992676 131.07055664 89.98852539 C136.80754762 97.86857069 141.80736083 106.20084501 146.65185547 114.65185547 C147.583407 116.27439487 148.53147182 117.88752491 149.49267578 119.49267578 C150.19432861 120.68932861 150.19432861 120.68932861 150.91015625 121.91015625 C151.54836304 122.98148804 151.54836304 122.98148804 152.19946289 124.07446289 C153 126 153 126 152 129 C151.62488281 128.40832031 151.24976563 127.81664062 150.86328125 127.20703125 C150.35152344 126.41683594 149.83976563 125.62664062 149.3125 124.8125 C148.81363281 124.03519531 148.31476563 123.25789063 147.80078125 122.45703125 C145.75803437 119.66985601 143.47053178 117.41728756 141 115 C139.90363066 113.83161009 138.81422582 112.65666051 137.73046875 111.4765625 C131.74462959 104.96539945 125.82684112 98.64390205 119 93 C117.41132918 91.61024456 115.82816381 90.21417547 114.25 88.8125 C113.53328125 88.17957031 112.8165625 87.54664063 112.078125 86.89453125 C110 85 110 85 108.171875 83.01171875 C105.89960221 80.90700565 103.5167774 79.51517028 100.80712891 78.03613281 C97.92798604 76.38535163 95.34037251 74.3638446 92.6875 72.375 C84.58972521 66.42492528 75.85366788 61.71794093 67 57 C67 56.34 67 55.68 67 55 C65.02 54.67 63.04 54.34 61 54 C61 53.34 61 52.68 61 52 C60.15179687 51.89429688 59.30359375 51.78859375 58.4296875 51.6796875 C54.05971913 50.81365732 50.30107508 49.11365908 46.25927734 47.27734375 C43.05291855 45.83765063 40.04965671 44.74744492 36.625 44 C32.01507039 42.33340811 30.35391516 37.91026917 28.20947266 33.82373047 C21.37450608 20.87726647 11.21655634 10.25365898 0 1 C0 0.67 0 0.34 0 0 Z " fill="#0B4766" transform="translate(482,207)"/>
<path d="M0 0 C0.66 0 1.32 0 2 0 C5 4.38461538 5 4.38461538 5 7 C5.5465625 7.20882813 6.093125 7.41765625 6.65625 7.6328125 C9.86301122 9.50342321 12.07423809 12.11875282 14.5 14.875 C18.31698769 19.16539707 18.31698769 19.16539707 22.34375 23.2578125 C24 25 24 25 24 27 C24.58265625 27.26425781 25.1653125 27.52851563 25.765625 27.80078125 C28.08910711 29.04782497 29.79587105 30.42313151 31.75 32.1875 C32.4409375 32.80367188 33.131875 33.41984375 33.84375 34.0546875 C36 36 36 36 38.15625 37.9453125 C38.8471875 38.56148438 39.538125 39.17765625 40.25 39.8125 C40.87390625 40.37582031 41.4978125 40.93914062 42.140625 41.51953125 C44.00986858 43.00785754 45.82957298 44.01562491 48 45 C48 45.66 48 46.32 48 47 C48.556875 47.2475 49.11375 47.495 49.6875 47.75 C52 49 52 49 54.3125 50.875 C56.8258891 52.86233092 59.38488779 54.39336506 62.1875 55.93359375 C64.02403648 57.01414216 65.67690569 58.21463695 67.375 59.5 C71.27516721 62.36959911 75.5315878 64.18629074 80 66 C80 66.66 80 67.32 80 68 C81.175625 68.350625 82.35125 68.70125 83.5625 69.0625 C88.71580477 70.76667832 93.54152101 73.03700518 98.41821289 75.39868164 C99.3268811 75.83555298 99.3268811 75.83555298 100.25390625 76.28125 C100.86226318 76.57620361 101.47062012 76.87115723 102.09741211 77.17504883 C103.99949395 78.04580436 103.99949395 78.04580436 106.07641602 78.61206055 C110.1124105 79.80761358 112.32311335 80.88173318 114.58203125 84.51953125 C115.34586255 85.93976704 116.08852453 87.37153939 116.8125 88.8125 C122.98216262 100.14878564 130.50124432 110.19816389 140 119 C141.00347823 119.99650963 142.00445428 120.99556548 143 122 C132.91624408 119.72865894 123.34028133 115.54006846 114.35546875 110.5234375 C108.10094213 107.04343567 108.10094213 107.04343567 101.5 104.3125 C98 103 98 103 96.6875 101.640625 C94.26597543 99.286365 91.4870062 97.99491427 88.5 96.4375 C85.22195818 94.72095783 82.07946228 93.05297485 79 91 C79 90.34 79 89.68 79 89 C78.401875 88.87625 77.80375 88.7525 77.1875 88.625 C75 88 75 88 72 86 C72 85.34 72 84.68 72 84 C71.278125 83.731875 70.55625 83.46375 69.8125 83.1875 C67.00233617 82.00098638 64.51583443 80.72514361 62 79 C62 78.34 62 77.68 62 77 C61.4225 76.73832031 60.845 76.47664063 60.25 76.20703125 C54.4144091 73.07647988 50.08036145 68.10045182 46 63 C44.80435439 61.96433514 43.59416352 60.94537422 42.375 59.9375 C36.88601522 55.21677091 32.47637045 49.66133582 28 44 C27.4342627 43.2879541 26.86852539 42.5759082 26.28564453 41.84228516 C24.47122876 39.54897699 22.67074971 37.24544623 20.875 34.9375 C20.29403564 34.19902832 19.71307129 33.46055664 19.11450195 32.69970703 C18.57913818 32.00345215 18.04377441 31.30719727 17.4921875 30.58984375 C17.01120605 29.96972412 16.53022461 29.34960449 16.03466797 28.71069336 C15 27 15 27 15 24 C14.34 24 13.68 24 13 24 C10 19.61538462 10 19.61538462 10 17 C9.34 17 8.68 17 8 17 C7.67386719 16.32453125 7.34773437 15.6490625 7.01171875 14.953125 C6.57472656 14.06109375 6.13773438 13.1690625 5.6875 12.25 C5.25824219 11.36828125 4.82898438 10.4865625 4.38671875 9.578125 C3.08563188 6.98653572 3.08563188 6.98653572 1.33203125 4.859375 C0 3 0 3 0 0 Z " fill="#084565" transform="translate(189,269)"/>
<path d="M0 0 C0.99 0.495 0.99 0.495 2 1 C1.20078125 1.59425781 0.4015625 2.18851562 -0.421875 2.80078125 C-7.37771663 8.02967002 -13.92743729 13.50870984 -20.2734375 19.4609375 C-22.6158624 21.64227874 -24.9995712 23.73980398 -27.4375 25.8125 C-29.83559785 27.87655927 -31.89495676 29.96962002 -33.875 32.4375 C-34.926875 33.7059375 -34.926875 33.7059375 -36 35 C-36.66 35 -37.32 35 -38 35 C-38 34.01 -38 33.02 -38 32 C-46.26983654 38.4365488 -53.78803491 45.41542824 -61.18847656 52.81787109 C-62.98736963 54.61240027 -64.80168321 56.39026701 -66.6171875 58.16796875 C-74.70354814 66.17653558 -81.5504258 74.63347826 -88 84 C-88.55896973 84.7955127 -89.11793945 85.59102539 -89.69384766 86.41064453 C-90.92335976 88.17638142 -92.1267371 89.9546883 -93.3125 91.75 C-93.72000488 92.36504395 -94.12750977 92.98008789 -94.54736328 93.61376953 C-99.4388612 101.08403253 -103.63884234 108.81044145 -107.140625 117.02734375 C-107.71662242 118.34951965 -108.33216991 119.65511287 -108.984375 120.94140625 C-110.04681453 123.02101586 -110.04681453 123.02101586 -110.91943359 125.35107422 C-111.9230553 127.81137596 -113.06112699 130.09570278 -114.3046875 132.44140625 C-117.48253619 138.73765011 -119.79414172 145.29063351 -122.125 151.9375 C-122.55425781 153.13568359 -122.98351562 154.33386719 -123.42578125 155.56835938 C-126.50504798 164.26136622 -129.23438217 172.94184822 -131 182 C-131.29754333 183.38481425 -131.59828746 184.76894492 -131.90234375 186.15234375 C-132.97782498 191.0930299 -133.99899697 196.04373836 -135 201 C-135.23332031 202.13695312 -135.46664063 203.27390625 -135.70703125 204.4453125 C-137.08346162 212.34740918 -137.20284811 220.18009853 -137.25 228.1875 C-137.2593457 229.28070557 -137.26869141 230.37391113 -137.27832031 231.50024414 C-137.2538527 237.72583932 -136.73480342 243.54172961 -135.44091797 249.63525391 C-134.84673112 252.82201682 -134.85640719 255.76916181 -135 259 C-135.66 259 -136.32 259 -137 259 C-137.46477447 257.54370667 -137.92134089 256.08479415 -138.375 254.625 C-138.75785156 253.40683594 -138.75785156 253.40683594 -139.1484375 252.1640625 C-141.55259359 243.23118897 -142.29307722 234.97921534 -142.20581055 225.70288086 C-142.18737316 223.67353915 -142.18530281 221.6446518 -142.18554688 219.61523438 C-142.13780342 208.97905407 -142.13780342 208.97905407 -141 204 C-140.8193676 202.58504623 -140.65158048 201.16836017 -140.5 199.75 C-140 196 -140 196 -139 195 C-138.90413532 193.36390953 -138.8152238 191.72711828 -138.76123047 190.08911133 C-136.97401565 139.44938553 -104.66521379 85.21303982 -70 50 C-68.94602586 48.90812006 -67.89262421 47.81568717 -66.83984375 46.72265625 C-60.61317493 40.31261562 -54.1036532 34.4342947 -47 29 C-46.09314453 28.29520508 -46.09314453 28.29520508 -45.16796875 27.57617188 C-32.26147874 17.60991775 -18.39116853 9.62917349 -4 2 C-3.27345215 1.59160889 -2.5469043 1.18321777 -1.79833984 0.76245117 C-0.90816162 0.38503784 -0.90816162 0.38503784 0 0 Z " fill="#156D9C" transform="translate(447,76)"/>
<path d="M0 0 C0.95519531 -0.01224609 1.91039062 -0.02449219 2.89453125 -0.03710938 C20.46709264 -0.07326691 36.55482193 8.22248479 49.171875 20.1171875 C62.64417321 34.48366479 67.9466716 52.3371413 67.41015625 71.59765625 C66.62021335 87.65101467 60.31228682 100.991202 50.125 113.1875 C49.31095703 114.17363281 49.31095703 114.17363281 48.48046875 115.1796875 C38.69049551 125.93626569 22.4758268 134.58320351 7.93945312 135.29443359 C-14.16503313 135.85105341 -32.2319935 131.36133075 -48.875 116.1875 C-60.15144926 104.91105074 -68.18386017 87.72352172 -68.29296875 71.74047852 C-68.27878906 70.77424561 -68.26460938 69.8080127 -68.25 68.8125 C-68.23839844 67.79663818 -68.22679687 66.78077637 -68.21484375 65.73413086 C-67.82062029 47.67086996 -60.52516064 30.93572842 -47.75390625 18.046875 C-40.68462481 11.4309097 -33.05935113 7.56541864 -24.1875 3.9375 C-23.55763184 3.67888184 -22.92776367 3.42026367 -22.27880859 3.15380859 C-14.82044795 0.20780527 -7.90970017 0.00529431 0 0 Z M-46.875 23.1875 C-47.66003906 23.87457031 -48.44507813 24.56164062 -49.25390625 25.26953125 C-59.45013894 34.56863348 -65.33411137 48.05248851 -66.22265625 61.75390625 C-66.97358565 80.0277024 -62.07343547 95.54970311 -50.25 109.8125 C-38.09144746 122.77219747 -22.85428125 131.95383513 -4.78417969 132.54125977 C14.75030432 132.73342396 30.57526713 127.73380302 45.125 114.1875 C58.27524122 100.99635601 65.27797099 86.51601338 65.4375 67.6875 C65.40694919 51.11198981 60.03062819 36.8598379 48.765625 24.625 C45.42280691 21.30590277 45.42280691 21.30590277 41.125 20.1875 C41.125 19.5275 41.125 18.8675 41.125 18.1875 C29.52374563 6.85921632 13.3291681 2.64402095 -2.375 2.75 C-3.42558594 2.73001953 -4.47617187 2.71003906 -5.55859375 2.68945312 C-22.61589637 2.69999534 -34.96061992 11.81380491 -46.875 23.1875 Z " fill="#F3F5F6" transform="translate(408.875,232.8125)"/>
<path d="M0 0 C0.33 0 0.66 0 1 0 C1 1.65 1 3.3 1 5 C3.475 4.505 3.475 4.505 6 4 C4.70994066 10.50893577 2.88565057 16.42723767 0.375 22.5625 C0.02091064 23.43310059 -0.33317871 24.30370117 -0.69799805 25.20068359 C-10.25027576 48.33170278 -23.24500234 69.2057641 -39.58203125 88.15234375 C-41.47936144 90.38684086 -43.28017951 92.62881892 -45 95 C-42.22387436 93.82548531 -40.1349731 92.33031986 -37.875 90.375 C-35 88 -35 88 -33 88 C-33 87.34 -33 86.68 -33 86 C-31.56640625 84.58984375 -31.56640625 84.58984375 -29.5625 82.9375 C-21.26939116 76.31188514 -21.26939116 76.31188514 -15 68 C-14.34 68 -13.68 68 -13 68 C-14.40634466 71.18046187 -16.07848343 73.33536362 -18.52734375 75.79296875 C-19.23109131 76.50098633 -19.93483887 77.20900391 -20.65991211 77.93847656 C-21.41151611 78.6806543 -22.16312012 79.42283203 -22.9375 80.1875 C-23.7116626 80.95416992 -24.4858252 81.72083984 -25.28344727 82.51074219 C-30.92924571 88.05117123 -36.66862843 93.24729495 -43 98 C-43.61327148 98.47324707 -44.22654297 98.94649414 -44.85839844 99.43408203 C-56.16696958 108.13610602 -68.00344324 115.17948263 -80.65771484 121.75048828 C-82.82280404 122.90547332 -84.91876599 124.135379 -87.01953125 125.40234375 C-88.00308594 125.92957031 -88.98664063 126.45679688 -90 127 C-90.66 126.67 -91.32 126.34 -92 126 C-91.20078125 125.40574219 -90.4015625 124.81148437 -89.578125 124.19921875 C-82.61625203 118.96579606 -76.06153467 113.48181367 -69.7109375 107.5234375 C-67.45744824 105.42580917 -65.16659836 103.4194089 -62.8125 101.4375 C-58.1089442 97.3436644 -54.07988893 92.70348171 -50 88 C-48.73349609 86.58267578 -48.73349609 86.58267578 -47.44140625 85.13671875 C-28.32966589 63.4800181 -12.32861384 37.10056312 -3.7734375 9.43359375 C-2.73728607 6.1733799 -1.41456302 3.11203864 0 0 Z " fill="#39A8E2" transform="translate(460,393)"/>
<path d="M0 0 C0.66 0 1.32 0 2 0 C13.22726513 20.49248393 18.15624713 42.2467172 12.5 65.5625 C8.75242529 78.16437973 2.73368496 89.18532849 -6 99 C-6.62519531 99.77859375 -7.25039063 100.5571875 -7.89453125 101.359375 C-14.6414275 109.54909021 -23.41147836 114.6825644 -33 119 C-34.42505859 119.65162109 -34.42505859 119.65162109 -35.87890625 120.31640625 C-52.55172534 127.64076107 -76.74216932 128.05113278 -94 122 C-97.47117928 120.54550883 -100.70998941 118.82043863 -104 117 C-107.2049492 115.43416441 -110.41669299 113.882896 -113.62890625 112.33203125 C-116 111 -116 111 -117 109 C-114.26525562 110.06634622 -111.58035193 111.19021926 -108.90625 112.40234375 C-88.66050861 121.52685793 -65.17379256 123.94296117 -44 116 C-34.30927118 112.01605927 -25.76510238 107.10513889 -18 100 C-16.97712891 99.11441406 -16.97712891 99.11441406 -15.93359375 98.2109375 C-2.89056329 86.21441242 5.87909192 67.72267249 7.21948242 50.1171875 C7.33920512 47.0330102 7.37975721 43.96147574 7.375 40.875 C7.37338867 39.78058594 7.37177734 38.68617188 7.37011719 37.55859375 C7.19443785 25.86041664 5.16057584 15.15142418 -0.36328125 4.69921875 C-1 3 -1 3 0 0 Z " fill="#2B92C8" transform="translate(481,260)"/>
<path d="M0 0 C0.33 0 0.66 0 1 0 C1.02687279 1.81242052 1.04633715 3.62495233 1.0625 5.4375 C1.07410156 6.44683594 1.08570313 7.45617187 1.09765625 8.49609375 C1 11 1 11 0 12 C-0.20896317 13.80811184 -0.36780361 15.62216032 -0.5 17.4375 C-0.89007634 22.78015267 -0.89007634 22.78015267 -2 25 C-2.30686091 29.61772764 -2.29312964 34.24811361 -2.3125 38.875 C-2.31644775 39.5480719 -2.32039551 40.2211438 -2.32446289 40.91461182 C-2.35665661 52.64957412 -0.99372551 63.6398809 2 75 C2.66 75 3.32 75 4 75 C4 73.35 4 71.7 4 70 C4.33 70 4.66 70 5 70 C5.14695312 70.57105469 5.29390625 71.14210938 5.4453125 71.73046875 C7.51597347 79.21578917 10.56895776 86.04541194 14 93 C14.4640625 93.95261719 14.928125 94.90523438 15.40625 95.88671875 C21.01171481 106.8018044 29.81311066 119.23705701 41 125 C40.67 125.66 40.34 126.32 40 127 C22.86327295 114.79367207 12.07510839 100.72515537 3 82 C2.56816406 81.14148438 2.13632812 80.28296875 1.69140625 79.3984375 C-9.31652392 55.15529167 -6.51946043 25.00153279 0 0 Z " fill="#3795C6" transform="translate(308,260)"/>
<path d="M0 0 C-27.39908032 13.49111009 -56.55448907 17.75095117 -86 8 C-97.1198841 3.8801159 -97.1198841 3.8801159 -101 0 C-97.89340768 0.69433054 -95.0654733 1.72375323 -92.125 2.9375 C-86.03782649 5.39732414 -80.52804205 7.10399423 -74 8 C-73.67 8.33 -73.34 8.66 -73 9 C-63.7225895 11.05664278 -51.22854664 13.07618221 -42 10 C-40.3339912 9.92190584 -38.6670966 9.86222873 -37 9.8125 C-31.12461705 9.36826373 -25.83721931 7.95580705 -20.25 6.1875 C-19.45851563 5.93911377 -18.66703125 5.69072754 -17.8515625 5.43481445 C-13.20179996 3.90838216 -8.97752837 2.08160005 -4.71777344 -0.3347168 C-3 -1 -3 -1 0 0 Z " fill="#4090BA" transform="translate(460,393)"/>
<path d="M0 0 C2.73474438 1.06634622 5.41964807 2.19021926 8.09375 3.40234375 C29.81511544 13.19190409 52.15932024 13.534243 75 7 C73.65498405 9.6900319 71.80990617 10.22881195 69.11328125 11.33984375 C66.07765773 12.2881254 63.08010908 12.56047404 59.91796875 12.7890625 C57.91719347 12.89692242 57.91719347 12.89692242 56 14 C52.15766195 14.39821862 48.29580168 14.5159691 44.4375 14.6875 C42.84711914 14.77741211 42.84711914 14.77741211 41.22460938 14.86914062 C32.96170685 15.2412516 25.57730219 14.74448767 18.1875 10.75 C17.36765625 10.31558594 16.5478125 9.88117188 15.703125 9.43359375 C14.36507813 8.72396484 14.36507813 8.72396484 13 8 C9.79292179 6.43865929 6.58326101 4.88287379 3.37109375 3.33203125 C1 2 1 2 0 0 Z " fill="#3E98C6" transform="translate(364,369)"/>
<path d="M0 0 C3.1115579 9.3346737 -9.61061905 28.26572065 -13.71484375 36.6171875 C-31.10912841 71.07275228 -31.10912841 71.07275228 -43 79 C-41.71638649 75.4121437 -40.22407126 72.75384435 -37.8125 69.8125 C-33.983648 65.01652596 -30.44625181 60.07665345 -27 55 C-26.44570313 54.20464844 -25.89140625 53.40929687 -25.3203125 52.58984375 C-19.92622787 44.54843187 -16.02719396 35.86724229 -11.98535156 27.09960938 C-10.80839973 24.59173382 -9.54048645 22.13861262 -8.25 19.6875 C-5.64705068 14.59005758 -3.85469369 9.21522289 -2.015625 3.80859375 C-1 1 -1 1 0 0 Z " fill="#4293BD" transform="translate(496,375)"/>
<path d="M0 0 C0.66 0 1.32 0 2 0 C0.59365534 3.18046187 -1.07848343 5.33536362 -3.52734375 7.79296875 C-4.23165527 8.50138916 -4.9359668 9.20980957 -5.66162109 9.93969727 C-6.41266113 10.68147217 -7.16370117 11.42324707 -7.9375 12.1875 C-8.70658691 12.95054443 -9.47567383 13.71358887 -10.26806641 14.49975586 C-19.19577288 23.27308468 -28.79371461 30.75491927 -39 38 C-39 35 -39 35 -37.42578125 33.28125 C-33.7404883 30.1749772 -30.17960844 27.41977331 -26 25 C-24.92558244 24.11849532 -23.86355916 23.22172949 -22.8125 22.3125 C-20 20 -20 20 -18 20 C-18 19.34 -18 18.68 -18 18 C-16.56640625 16.58984375 -16.56640625 16.58984375 -14.5625 14.9375 C-6.26939116 8.31188514 -6.26939116 8.31188514 0 0 Z " fill="#489BC7" transform="translate(445,461)"/>
<path d="M0 0 C0.33 0 0.66 0 1 0 C1.02687279 1.81242052 1.04633715 3.62495233 1.0625 5.4375 C1.07410156 6.44683594 1.08570313 7.45617187 1.09765625 8.49609375 C1 11 1 11 0 12 C-0.20896317 13.80811184 -0.36780361 15.62216032 -0.5 17.4375 C-0.89007634 22.78015267 -0.89007634 22.78015267 -2 25 C-2.15378852 26.95774069 -2.24971463 28.92017352 -2.31640625 30.8828125 C-2.35830078 32.04941406 -2.40019531 33.21601563 -2.44335938 34.41796875 C-2.48267578 35.64128906 -2.52199219 36.86460937 -2.5625 38.125 C-2.60568359 39.35605469 -2.64886719 40.58710938 -2.69335938 41.85546875 C-2.79968704 44.90352853 -2.90171781 47.9516719 -3 51 C-3.33 51 -3.66 51 -4 51 C-6.70398149 34.10011567 -4.34629525 16.47195165 0 0 Z " fill="#3A8CB6" transform="translate(308,260)"/>
<path d="M0 0 C1.32 0 2.64 0 4 0 C5.74480439 2.1184758 7.20729389 4.14576585 8.6875 6.4375 C14.01555283 14.28701434 19.61595552 21.27391559 28 26 C27.67 26.66 27.34 27.32 27 28 C16.23038111 20.32890274 7.37834512 11.97840723 0 1 C0 0.67 0 0.34 0 0 Z " fill="#479CC8" transform="translate(321,359)"/>
<path d="M0 0 C3.10659232 0.69433054 5.9345267 1.72375323 8.875 2.9375 C14.96217351 5.39732414 20.47195795 7.10399423 27 8 C27.33 8.33 27.66 8.66 28 9 C31.29123558 9.5394725 34.59204015 9.9661339 37.8984375 10.40234375 C41 11 41 11 44 13 C37.611503 13.25227514 32.01187894 12.38509787 25.8125 10.875 C24.435177 10.54375122 24.435177 10.54375122 23.0300293 10.20581055 C5.87432219 5.87432219 5.87432219 5.87432219 0 0 Z " fill="#4C98BF" transform="translate(359,393)"/>
<path d="M0 0 C0.66 0.33 1.32 0.66 2 1 C-7 10 -16 19 -25 28 C-25.33 27.01 -25.66 26.02 -26 25 C-22.98341194 21.95409841 -19.96097142 18.91406781 -16.9375 15.875 C-15.66616211 14.59109375 -15.66616211 14.59109375 -14.36914062 13.28125 C-9.73738067 8.6316068 -5.05638995 4.18507173 0 0 Z " fill="#1B6388" transform="translate(396,108)"/>
<path d="M0 0 C0.66 0.33 1.32 0.66 2 1 C-1.3 4.3 -4.6 7.6 -8 11 C-7.01 11.33 -6.02 11.66 -5 12 C-7.95105384 13.7004792 -10.91190122 15.38311093 -13.875 17.0625 C-14.71675781 17.54783203 -15.55851562 18.03316406 -16.42578125 18.53320312 C-17.63427734 19.21479492 -17.63427734 19.21479492 -18.8671875 19.91015625 C-19.61081543 20.33433838 -20.35444336 20.75852051 -21.12060547 21.19555664 C-21.74080566 21.46102295 -22.36100586 21.72648926 -23 22 C-23.66 21.67 -24.32 21.34 -25 21 C-24.20078125 20.40574219 -23.4015625 19.81148437 -22.578125 19.19921875 C-14.62380806 13.21854765 -7.22144598 6.84410917 0 0 Z " fill="#53B2E2" transform="translate(393,498)"/>
<path d="M0 0 C4.1932565 4.67709379 7.54164713 10.22510562 10 16 C9.67 16.99 9.34 17.98 9 19 C8.62488281 18.40832031 8.24976563 17.81664062 7.86328125 17.20703125 C4.89479144 12.6234437 1.96712959 8.74043647 -2 5 C-2.33 4.34 -2.66 3.68 -3 3 C-2.34 3 -1.68 3 -1 3 C-0.67 2.01 -0.34 1.02 0 0 Z " fill="#39667E" transform="translate(625,317)"/>
<path d="M0 0 C0 3 0 3 -1.56054688 4.90112305 C-2.62885742 5.94586792 -2.62885742 5.94586792 -3.71875 7.01171875 C-4.48574219 7.76904297 -5.25273437 8.52636719 -6.04296875 9.30664062 C-6.85378906 10.09232422 -7.66460937 10.87800781 -8.5 11.6875 C-9.31082031 12.48478516 -10.12164062 13.28207031 -10.95703125 14.10351562 C-12.96482203 16.0758748 -14.9792687 18.04091492 -17 20 C-17.66 19.67 -18.32 19.34 -19 19 C-16.7765502 16.57801986 -14.54524231 14.16341377 -12.3125 11.75 C-11.68666016 11.06808594 -11.06082031 10.38617188 -10.41601562 9.68359375 C-7.13335522 6.14313278 -3.89372368 2.8886516 0 0 Z " fill="#B6D6E5" transform="translate(426,95)"/>
<path d="M0 0 C6.59904729 1.52785824 12.87389209 3.07617577 19 6 C18.67 6.66 18.34 7.32 18 8 C13.38 6.68 8.76 5.36 4 4 C4 3.34 4 2.68 4 2 C2.68 1.67 1.36 1.34 0 1 C0 0.67 0 0.34 0 0 Z " fill="#2C769D" transform="translate(430,197)"/>
<path d="M0 0 C0.66 0.33 1.32 0.66 2 1 C0.95199219 2.03060547 0.95199219 2.03060547 -0.1171875 3.08203125 C-1.02726562 3.98308594 -1.93734375 4.88414063 -2.875 5.8125 C-3.77992188 6.70582031 -4.68484375 7.59914063 -5.6171875 8.51953125 C-8.09831514 10.95638333 -8.09831514 10.95638333 -10 14 C-10.66 14 -11.32 14 -12 14 C-11.29404824 7.64643412 -4.63284114 3.7709172 0 0 Z " fill="#0F5376" transform="translate(421,97)"/>
<path d="M0 0 C4 0 4 0 5.51953125 1.390625 C5.94621094 2.00421875 6.37289063 2.6178125 6.8125 3.25 C7.25207031 3.85328125 7.69164062 4.4565625 8.14453125 5.078125 C9.20861066 7.46865957 8.87071019 8.58551531 8 11 C6.66375099 9.35653302 5.33107149 7.71016314 4 6.0625 C3.2575 5.14597656 2.515 4.22945313 1.75 3.28515625 C0 1 0 1 0 0 Z " fill="#3B99CA" transform="translate(321,359)"/>
<path d="M0 0 C0.33 0.66 0.66 1.32 1 2 C3.02695382 2.39193511 3.02695382 2.39193511 5.375 2.5 C8.89651464 2.72941463 9.92939296 2.95292864 13 5 C13 5.66 13 6.32 13 7 C7.30860098 5.90301833 2.25432063 4.45946923 -3 2 C-2.01 1.34 -1.02 0.68 0 0 Z " fill="#B4D2DF" transform="translate(494,208)"/>
<path d="M0 0 C2.5 1.3125 2.5 1.3125 5 3 C5 3.99 5 4.98 5 6 C5.639375 6.268125 6.27875 6.53625 6.9375 6.8125 C9 8 9 8 10 11 C9.01 11.33 8.02 11.66 7 12 C5.82767315 10.3790787 4.6622923 8.75313167 3.5 7.125 C2.8503125 6.22007812 2.200625 5.31515625 1.53125 4.3828125 C0 2 0 2 0 0 Z " fill="#2A7CA8" transform="translate(472,249)"/>
<path d="M0 0 C0.66 0 1.32 0 2 0 C5 4.38461538 5 4.38461538 5 7 C6.32 7.66 7.64 8.32 9 9 C8.01 9.99 7.02 10.98 6 12 C4.99157547 10.56839732 3.99352109 9.12948547 3 7.6875 C2.1646875 6.48673828 2.1646875 6.48673828 1.3125 5.26171875 C0 3 0 3 0 0 Z " fill="#2D6582" transform="translate(189,269)"/>
<path d="M0 0 C0.66 0.33 1.32 0.66 2 1 C0.54634731 2.17249353 -0.91307419 3.33783816 -2.375 4.5 C-3.18710937 5.1496875 -3.99921875 5.799375 -4.8359375 6.46875 C-7 8 -7 8 -9 8 C-9.33 7.01 -9.66 6.02 -10 5 C-8.38007835 4.13624104 -6.75388139 3.28424146 -5.125 2.4375 C-4.22007812 1.96183594 -3.31515625 1.48617187 -2.3828125 0.99609375 C-1.20332031 0.50302734 -1.20332031 0.50302734 0 0 Z " fill="#477992" transform="translate(447,76)"/>
<path d="M0 0 C4.2742558 1.5830577 6.26531794 4.50568404 9 8 C3.5 6.53333333 3.5 6.53333333 1.125 4 C0 2 0 2 0 0 Z " fill="#A6C9DA" transform="translate(228,326)"/>
<path d="M0 0 C0.66 0.33 1.32 0.66 2 1 C2 1.66 2 2.32 2 3 C0.54735962 3.8638129 -0.9123163 4.71580454 -2.375 5.5625 C-3.59316406 6.27599609 -3.59316406 6.27599609 -4.8359375 7.00390625 C-5.55007813 7.33261719 -6.26421875 7.66132812 -7 8 C-7.66 7.67 -8.32 7.34 -9 7 C-6.03 4.69 -3.06 2.38 0 0 Z " fill="#72B8DB" transform="translate(377,512)"/>
<path d="M0 0 C2.31 1.65 4.62 3.3 7 5 C3.59068103 6.13643966 2.99664544 5.86747764 -0.1875 4.5625 C-0.90292969 4.27503906 -1.61835938 3.98757813 -2.35546875 3.69140625 C-2.89816406 3.46324219 -3.44085938 3.23507812 -4 3 C-2.68 2.67 -1.36 2.34 0 2 C0 1.34 0 0.68 0 0 Z " fill="#4C778D" transform="translate(325,385)"/>
<path d="M0 0 C2.97 0.495 2.97 0.495 6 1 C6.33 2.65 6.66 4.3 7 6 C3.73539027 4.19587357 2.11070205 3.16605307 0 0 Z " fill="#305D75" transform="translate(482,207)"/>
<path d="M0 0 C2.97 0.33 5.94 0.66 9 1 C9 1.99 9 2.98 9 4 C5.85262818 3.30058404 2.97411124 2.23921302 0 1 C0 0.67 0 0.34 0 0 Z " fill="#8FB8CD" transform="translate(269,336)"/>
<path d="M0 0 C-0.3125 1.9375 -0.3125 1.9375 -1 4 C-1.99 4.33 -2.98 4.66 -4 5 C-4 4.34 -4 3.68 -4 3 C-4.66 2.67 -5.32 2.34 -6 2 C-2.25 0 -2.25 0 0 0 Z " fill="#1A5C7F" transform="translate(438,82)"/>
<path d="M0 0 C3 1 3 1 3 1 Z " fill="#F7F7F7" transform="translate(498,594)"/>
<path d="M0 0 C3 1 3 1 3 1 Z " fill="#F7F7F7" transform="translate(490,594)"/>
<path d="M0 0 C2 1 2 1 2 1 Z " fill="#F7F7F7" transform="translate(494,594)"/>
<path d="M0 0 C2 1 2 1 2 1 Z " fill="#F7F7F7" transform="translate(486,594)"/>
<path d="" fill="#F7F7F7" transform="translate(0,0)"/>
<path d="" fill="#F7F7F7" transform="translate(0,0)"/>
<path d="" fill="#F7F7F7" transform="translate(0,0)"/>
<path d="" fill="#F7F7F7" transform="translate(0,0)"/>
<path d="" fill="#F7F7F7" transform="translate(0,0)"/>
<path d="" fill="#F7F7F7" transform="translate(0,0)"/>
<path d="" fill="#F7F7F7" transform="translate(0,0)"/>
<path d="" fill="#F7F7F7" transform="translate(0,0)"/>
<path d="" fill="#F6F6F6" transform="translate(0,0)"/>
</svg>
